<svg xmlns="http://www.w3.org/2000/svg" width="20" height="20" viewBox="0 0 20 20" fill="none">
    <path d="M14.2394 11.8654C10.7771 11.8828 10.2171 14.016 10.0304 15.8197L9.94555 16.6175H9.24965L9.1648 15.8197C8.97815 14.016 8.40111 11.8828 5.05761 11.8654C4.49755 10.686 4.25994 9.73217 4.25994 8.6569C4.25994 5.96874 6.41539 3.45389 9.60604 3.45389C12.7968 3.45389 14.9183 5.9513 14.9183 8.67432C14.9183 9.73217 14.8164 10.686 14.2394 11.8654ZM9.57216 0.193359C4.31091 0.193359 0 4.59859 0 9.99226C0 15.4034 4.31091 19.8086 9.57216 19.8086C14.8843 19.8086 19.1782 15.4034 19.1782 9.99226C19.1782 4.5986 14.8843 0.193359 9.57216 0.193359Z" fill="#29B24A"/>
  </svg>