<svg xmlns="http://www.w3.org/2000/svg" width="19" height="20" viewBox="0 0 19 20" fill="none">
    <g clip-path="url(#clip0_3237_23479)">
      <path d="M6.45862 14.5917C7.02166 15.2928 7.5341 16.0313 7.99224 16.8018C8.38339 17.5266 8.54644 18.018 8.83234 18.8912C9.00763 19.3736 9.16608 19.5175 9.50672 19.5175C9.87797 19.5175 10.0464 19.2726 10.1765 18.8938C10.4467 18.0692 10.6587 17.4398 10.9933 16.8452C11.6496 15.6971 12.4653 14.677 13.2667 13.6964C13.4837 13.4189 14.8864 11.8023 15.5179 10.5267C15.5179 10.5267 16.2941 9.12547 16.2941 7.16852C16.2941 5.33797 15.5287 4.06836 15.5287 4.06836L13.3249 4.64501L11.9865 8.08922L11.6554 8.56415L11.5892 8.65016L11.5011 8.75786L11.3465 8.92989L11.1257 9.14566L9.93385 10.0944L6.95426 11.7754L6.45862 14.5917Z" fill="#34A853"/>
      <path d="M3.38318 10.291C4.11037 11.914 5.51271 13.3407 6.46151 14.5927L11.501 8.76001C11.501 8.76001 10.791 9.66724 9.50311 9.66724C8.06862 9.66724 6.9097 8.54797 6.9097 7.13663C6.9097 6.16881 7.50561 5.50391 7.50561 5.50391L4.08473 6.39955L3.38318 10.291Z" fill="#FBBC04"/>
      <path d="M11.5574 0.800781C13.2311 1.32807 14.6637 2.435 15.5302 4.06735L11.5027 8.75686C11.5027 8.75686 12.0986 8.07998 12.0986 7.11815C12.0986 5.6739 10.8539 4.59502 9.50939 4.59502C8.23795 4.59502 7.50769 5.50076 7.50769 5.50076V2.54644L11.5574 0.800781Z" fill="#4285F4"/>
      <path d="M4.3064 2.87205C5.3061 1.70342 7.06515 0.5 9.49016 0.5C10.6667 0.5 11.5531 0.801789 11.5531 0.801789L7.50376 5.50251H4.63478L4.3064 2.87205Z" fill="#1A73E8"/>
      <path d="M3.38325 10.2894C3.38325 10.2894 2.71423 9.00933 2.71423 7.15485C2.71423 5.40208 3.41158 3.86995 4.30641 2.87109L7.50607 5.50193L3.38325 10.2894Z" fill="#EA4335"/>
    </g>
    <defs>
      <clipPath id="clip0_3237_23479">
        <rect width="19" height="19" fill="white" transform="translate(0 0.5)"/>
      </clipPath>
    </defs>
  </svg>