<svg xmlns="http://www.w3.org/2000/svg" width="19" height="20" viewBox="0 0 19 20" fill="none">
    <g clip-path="url(#clip0_3237_23488)">
      <path d="M9.5 1.6875C5.56486 1.6875 2.375 4.87736 2.375 8.8125C2.375 10.7794 3.17193 12.5603 4.46084 13.8495C5.75011 15.1395 8.7875 17.0063 8.96563 18.9656C8.99233 19.2594 9.20503 19.5 9.5 19.5C9.79497 19.5 10.0077 19.2594 10.0344 18.9656C10.2125 17.0063 13.2499 15.1395 14.5392 13.8495C15.8281 12.5603 16.625 10.7794 16.625 8.8125C16.625 4.87736 13.4351 1.6875 9.5 1.6875Z" fill="#FF4433"/>
      <path d="M9.5001 11.3059C10.8774 11.3059 11.9938 10.1894 11.9938 8.81211C11.9938 7.43485 10.8774 6.31836 9.5001 6.31836C8.12285 6.31836 7.00635 7.43485 7.00635 8.81211C7.00635 10.1894 8.12285 11.3059 9.5001 11.3059Z" fill="white"/>
    </g>
    <defs>
      <clipPath id="clip0_3237_23488">
        <rect width="19" height="19" fill="white" transform="translate(0 0.5)"/>
      </clipPath>
    </defs>
  </svg>