<svg width="24" height="24" viewBox="0 0 24 24" fill="none" xmlns="http://www.w3.org/2000/svg">
<g id="Question Circle">
<path id="Vector" d="M21.5 12C21.5 17.2467 17.2467 21.5 12 21.5C6.75329 21.5 2.5 17.2467 2.5 12C2.5 6.75329 6.75329 2.5 12 2.5C17.2467 2.5 21.5 6.75329 21.5 12ZM11.375 8.875C11.375 8.52982 11.6548 8.25 12 8.25C12.3452 8.25 12.625 8.52982 12.625 8.875C12.625 9.04498 12.5588 9.19673 12.4484 9.31037C12.3942 9.36616 12.3317 9.42858 12.2606 9.49956L12.2518 9.50835C12.0234 9.73622 11.7177 10.0414 11.4696 10.3601C11.1305 10.7958 10.75 11.434 10.75 12.25V13C10.75 13.6904 11.3096 14.25 12 14.25C12.6904 14.25 13.25 13.6904 13.25 13V12.25C13.25 12.2371 13.2538 12.138 13.4425 11.8956C13.5859 11.7113 13.752 11.5444 13.9721 11.3245L13.9732 11.3234C14.0566 11.2401 14.1468 11.15 14.2416 11.0524C14.787 10.4909 15.125 9.72119 15.125 8.875C15.125 7.14911 13.7259 5.75 12 5.75C10.2741 5.75 8.875 7.14911 8.875 8.875C8.875 9.56536 9.43464 10.125 10.125 10.125C10.8154 10.125 11.375 9.56536 11.375 8.875ZM12 17.5C12.8284 17.5 13.5 16.8284 13.5 16C13.5 15.1716 12.8284 14.5 12 14.5C11.1716 14.5 10.5 15.1716 10.5 16C10.5 16.8284 11.1716 17.5 12 17.5Z" fill="#A8B1BE" stroke="#A8B1BE"/>
</g>
</svg>
