<svg viewBox="0 0 31 30" fill="none" xmlns="http://www.w3.org/2000/svg">
<g id="Bold / Money / Bill List">
<path id="Subtract" fill-rule="evenodd" clip-rule="evenodd" d="M9.55627 2.5H21.4437C22.8923 2.5 23.6166 2.5 24.2008 2.70326C25.3085 3.08869 26.1782 3.98399 26.5526 5.12433C26.75 5.72568 26.75 6.47131 26.75 7.96258V25.4677C26.75 26.5405 25.5188 27.1097 24.7399 26.397C24.2823 25.9783 23.5927 25.9783 23.1351 26.397L22.5312 26.9496C21.7293 27.6835 20.5207 27.6835 19.7188 26.9496C18.9168 26.2157 17.7082 26.2157 16.9062 26.9496C16.1043 27.6835 14.8957 27.6835 14.0938 26.9496C13.2918 26.2157 12.0832 26.2157 11.2812 26.9496C10.4793 27.6835 9.27073 27.6835 8.46875 26.9496L7.86488 26.397C7.40728 25.9783 6.71772 25.9783 6.26012 26.397C5.48125 27.1097 4.25 26.5405 4.25 25.4677V7.96258C4.25 6.47131 4.25 5.72568 4.44744 5.12433C4.82185 3.98399 5.69152 3.08869 6.79924 2.70326C7.38338 2.5 8.10768 2.5 9.55627 2.5ZM9.25 8.4375C8.73223 8.4375 8.3125 8.85723 8.3125 9.375C8.3125 9.89277 8.73223 10.3125 9.25 10.3125H9.875C10.3928 10.3125 10.8125 9.89277 10.8125 9.375C10.8125 8.85723 10.3928 8.4375 9.875 8.4375H9.25ZM13.625 8.4375C13.1072 8.4375 12.6875 8.85723 12.6875 9.375C12.6875 9.89277 13.1072 10.3125 13.625 10.3125H21.75C22.2678 10.3125 22.6875 9.89277 22.6875 9.375C22.6875 8.85723 22.2678 8.4375 21.75 8.4375H13.625ZM9.25 12.8125C8.73223 12.8125 8.3125 13.2322 8.3125 13.75C8.3125 14.2678 8.73223 14.6875 9.25 14.6875H9.875C10.3928 14.6875 10.8125 14.2678 10.8125 13.75C10.8125 13.2322 10.3928 12.8125 9.875 12.8125H9.25ZM13.625 12.8125C13.1072 12.8125 12.6875 13.2322 12.6875 13.75C12.6875 14.2678 13.1072 14.6875 13.625 14.6875H21.75C22.2678 14.6875 22.6875 14.2678 22.6875 13.75C22.6875 13.2322 22.2678 12.8125 21.75 12.8125H13.625ZM9.25 17.1875C8.73223 17.1875 8.3125 17.6072 8.3125 18.125C8.3125 18.6428 8.73223 19.0625 9.25 19.0625H9.875C10.3928 19.0625 10.8125 18.6428 10.8125 18.125C10.8125 17.6072 10.3928 17.1875 9.875 17.1875H9.25ZM13.625 17.1875C13.1072 17.1875 12.6875 17.6072 12.6875 18.125C12.6875 18.6428 13.1072 19.0625 13.625 19.0625H21.75C22.2678 19.0625 22.6875 18.6428 22.6875 18.125C22.6875 17.6072 22.2678 17.1875 21.75 17.1875H13.625Z" fill="url(#paint0_linear_321_3607)"/>
</g>
<defs>
<linearGradient id="paint0_linear_321_3607" x1="15.5" y1="2.5" x2="15.5" y2="27.5" gradientUnits="userSpaceOnUse">
<stop stop-color="#AED1FF"/>
<stop offset="1" stop-color="#408EF6"/>
</linearGradient>
</defs>
</svg>
