<svg width="31" height="30" viewBox="0 0 31 30" fill="none" xmlns="http://www.w3.org/2000/svg">
<g id="Bold / Money / Money Bag">
<path id="Union" fill-rule="evenodd" clip-rule="evenodd" d="M15.565 1.5625H15.435C14.3119 1.56247 13.3754 1.56244 12.6319 1.66239C11.8472 1.7679 11.1387 1.99999 10.5693 2.56932C9.99999 3.13866 9.7679 3.84716 9.66239 4.63191C9.59074 5.16486 9.57046 6.43934 9.56474 7.53207C7.03693 7.61464 5.5192 7.90973 4.46447 8.96447C3 10.4289 3 12.786 3 17.5C3 22.214 3 24.5711 4.46447 26.0355C5.92893 27.5 8.28595 27.5 13 27.5H18C22.714 27.5 25.0711 27.5 26.5355 26.0355C28 24.5711 28 22.214 28 17.5C28 12.786 28 10.4289 26.5355 8.96447C25.4808 7.90973 23.9631 7.61464 21.4353 7.53207C21.4295 6.43934 21.4093 5.16486 21.3376 4.63191C21.2321 3.84716 21 3.13866 20.4307 2.56932C19.8613 1.99999 19.1528 1.7679 18.3681 1.66239C17.6246 1.56244 16.6881 1.56247 15.565 1.5625ZM19.5599 7.50235C19.5542 6.44404 19.5363 5.30509 19.4793 4.88174C19.4018 4.30492 19.2678 4.05805 19.1049 3.89515C18.942 3.73225 18.6951 3.59823 18.1183 3.52067C17.5145 3.4395 16.705 3.4375 15.5 3.4375C14.295 3.4375 13.4855 3.4395 12.8817 3.52067C12.3049 3.59823 12.058 3.73225 11.8951 3.89515C11.7323 4.05805 11.5982 4.30492 11.5207 4.88174C11.4638 5.30509 11.4458 6.44404 11.4401 7.50235C11.9294 7.5 12.4486 7.5 13 7.5H18C18.5514 7.5 19.0706 7.5 19.5599 7.50235ZM15.5 11.5625C16.0178 11.5625 16.4375 11.9822 16.4375 12.5V12.5128C17.7985 12.8557 18.9375 13.9288 18.9375 15.4167C18.9375 15.9344 18.5178 16.3542 18 16.3542C17.4822 16.3542 17.0625 15.9344 17.0625 15.4167C17.0625 14.9366 16.5303 14.2708 15.5 14.2708C14.4697 14.2708 13.9375 14.9366 13.9375 15.4167C13.9375 15.8967 14.4697 16.5625 15.5 16.5625C17.2312 16.5625 18.9375 17.7622 18.9375 19.5833C18.9375 21.0713 17.7985 22.1443 16.4375 22.4872V22.5C16.4375 23.0178 16.0178 23.4375 15.5 23.4375C14.9822 23.4375 14.5625 23.0178 14.5625 22.5V22.4872C13.2015 22.1443 12.0625 21.0713 12.0625 19.5833C12.0625 19.0656 12.4822 18.6458 13 18.6458C13.5178 18.6458 13.9375 19.0656 13.9375 19.5833C13.9375 20.0634 14.4697 20.7292 15.5 20.7292C16.5303 20.7292 17.0625 20.0634 17.0625 19.5833C17.0625 19.1033 16.5303 18.4375 15.5 18.4375C13.7688 18.4375 12.0625 17.2378 12.0625 15.4167C12.0625 13.9288 13.2015 12.8557 14.5625 12.5128V12.5C14.5625 11.9822 14.9822 11.5625 15.5 11.5625Z" fill="url(#paint0_linear_439_6642)"/>
</g>
<defs>
<linearGradient id="paint0_linear_439_6642" x1="15.5" y1="1.5625" x2="15.5" y2="27.5" gradientUnits="userSpaceOnUse">
<stop stop-color="#AED1FF"/>
<stop offset="1" stop-color="#408EF6"/>
</linearGradient>
</defs>
</svg>
