<svg width="34" height="26" viewBox="0 0 34 26" fill="none" xmlns="http://www.w3.org/2000/svg">
<g id="Frame 40290">
<g id="Group 1">
<path id="Vector" fill-rule="evenodd" clip-rule="evenodd" d="M8.04602 7C5.25945 7 3 9.25906 3 12.0457V14.3382C3 17.1249 5.25945 19.3839 8.04602 19.3839H25.049C27.8366 19.3839 30.0948 17.1249 30.0948 14.3382V12.0457C30.0948 9.25906 27.8366 7 25.049 7H8.04602ZM8.7192 9.39098C7.04644 9.39098 5.69089 10.7465 5.69089 12.4184V13.9655C5.69089 15.6375 7.04644 16.993 8.7192 16.993H24.3768C26.0486 16.993 27.4041 15.6375 27.4041 13.9655V12.4184C27.4041 10.7465 26.0486 9.39098 24.3768 9.39098H8.7192Z" fill="#031022"/>
<path id="Vector_2" d="M16.5481 14.5641C17.3417 14.5641 17.985 13.9208 17.985 13.1272C17.985 12.3337 17.3417 11.6904 16.5481 11.6904C15.7546 11.6904 15.1113 12.3337 15.1113 13.1272C15.1113 13.9208 15.7546 14.5641 16.5481 14.5641Z" fill="#031022"/>
</g>
</g>
</svg>
