<svg width="261" height="42" viewBox="0 0 261 42" fill="none" xmlns="http://www.w3.org/2000/svg">
<path d="M3.21346 31.2365V13.9304L2.87158 11.205H8.06817L15.7947 24.8319L23.7946 11.205H28.41V31.2365H23.8973V18.5295H23.5211L22.1879 21.4933L17.8802 29.1924H13.7434L9.43568 21.4933L8.06817 18.5295H7.72627V31.2365H3.21346ZM39.8025 31.2365C38.207 31.2365 36.9535 31.0094 36.0417 30.5552C35.13 30.1009 34.4805 29.4196 34.0931 28.5111C33.7283 27.6026 33.5459 26.4784 33.5459 25.1385V17.269C33.5459 15.9517 33.7283 14.8502 34.0931 13.9644C34.4577 13.056 35.0959 12.3746 36.0075 11.9204C36.9192 11.4434 38.1842 11.205 39.8025 11.205H49.7853C51.3807 11.205 52.623 11.4434 53.5118 11.9204C54.4235 12.3746 55.0618 13.056 55.4264 13.9644C55.8138 14.8502 56.0076 15.9517 56.0076 17.269V25.1385C56.0076 27.1371 55.5631 28.6587 54.6742 29.7035C53.7854 30.7254 52.1557 31.2365 49.7853 31.2365H39.8025ZM40.7939 27.966H48.8281C49.6714 27.966 50.321 27.7502 50.7767 27.3187C51.2554 26.8872 51.4947 26.2967 51.4947 25.5473V16.8601C51.4947 16.2015 51.2554 15.6451 50.7767 15.1908C50.2982 14.7139 49.6485 14.4754 48.8281 14.4754H40.7939C39.9734 14.4754 39.3124 14.6912 38.811 15.1227C38.3095 15.5542 38.0588 16.1334 38.0588 16.8601V25.5473C38.0588 26.3194 38.2981 26.9213 38.7768 27.3528C39.2783 27.7616 39.9506 27.966 40.7939 27.966ZM61.4734 31.2365V13.9304L61.1314 11.205H66.0546L77.6785 23.3329L79.0119 25.1725H79.3879V11.205H83.9008V31.2365H79.5589L67.6614 18.9041L66.328 17.3029H65.9863V31.2365H61.4734ZM89.3767 31.2365V11.205H110.642V14.4754H93.8896V19.1767H106.676V22.5494H93.8896V27.966H110.778L112.146 30.8618C112.146 30.9526 111.838 31.0434 111.223 31.1343C110.608 31.2024 109.548 31.2365 108.043 31.2365H89.3767ZM121.739 31.2365V22.9241L111.79 11.205H117.26L122.32 17.5755L123.892 19.6878H124.234L125.807 17.5755L130.867 11.205H136.337L135.004 13.249L126.252 23.0603V31.2365H121.739ZM139.765 31.2365V13.9304L139.423 11.1709H154.569C156.028 11.1709 157.167 11.364 157.988 11.75C158.831 12.1361 159.446 12.6471 159.834 13.2831C160.244 13.8963 160.506 14.5549 160.62 15.259C160.734 15.963 160.791 16.633 160.791 17.269V19.2788C160.791 19.8013 160.711 20.3918 160.552 21.0504C160.392 21.6864 160.096 22.3108 159.663 22.9241C159.23 23.5146 158.603 24.0142 157.782 24.4231C156.962 24.8091 155.891 25.0021 154.569 25.0021H151.082C149.646 25.0021 148.301 24.9681 147.047 24.8999C145.817 24.8319 144.894 24.775 144.278 24.7296V31.2365H139.765ZM144.278 21.7317H153.577C154.603 21.7317 155.31 21.4819 155.697 20.9823C156.084 20.4826 156.278 19.8807 156.278 19.1767V17.0304C156.278 16.3037 156.084 15.6905 155.697 15.1908C155.31 14.6912 154.614 14.4414 153.612 14.4414H144.278V21.7317ZM232.484 31.5772C231.573 31.5772 230.671 31.4408 229.784 31.1683C228.917 30.873 227.925 30.169 226.809 29.0561L224.347 26.6033C223.345 25.5812 222.239 24.8319 221.03 24.3549C219.846 23.8779 218.353 23.6395 216.552 23.6395H215.492V31.2365H210.98V13.9304L210.638 11.1709H225.782C227.242 11.1709 228.381 11.364 229.202 11.75C230.045 12.1361 230.66 12.6471 231.048 13.2831C231.459 13.8963 231.72 14.5549 231.834 15.259C231.948 15.963 232.006 16.633 232.006 17.269V17.9162C232.006 18.4159 231.936 18.9723 231.799 19.5854C231.664 20.1987 231.401 20.8006 231.014 21.3911C230.627 21.9816 230.068 22.4812 229.339 22.89C228.631 23.2987 227.697 23.5373 226.534 23.6054C226.832 23.7644 227.207 24.0142 227.664 24.3549C228.118 24.6729 228.586 25.0248 229.064 25.411C229.567 25.7971 230.022 26.149 230.432 26.467C230.843 26.785 231.163 27.0121 231.389 27.1483C232.211 27.6253 232.94 27.9547 233.578 28.1364C234.217 28.318 234.741 28.4203 235.151 28.4429C235.561 28.4656 235.801 28.477 235.868 28.477L235.184 31.2365C234.979 31.3045 234.638 31.3727 234.159 31.4408C233.681 31.5317 233.122 31.5772 232.484 31.5772ZM220.62 20.5394C221.486 20.5394 222.262 20.5281 222.945 20.5053C223.629 20.4598 224.244 20.4145 224.792 20.3691C225.794 20.2555 226.49 19.983 226.877 19.5515C227.287 19.0972 227.492 18.5181 227.492 17.814V17.0304C227.492 16.3037 227.298 15.6905 226.911 15.1908C226.523 14.6912 225.828 14.4414 224.826 14.4414H215.492V20.3691C216.494 20.4371 217.419 20.4826 218.262 20.5053C219.105 20.5281 219.891 20.5394 220.62 20.5394ZM244.452 31.2365L244.419 14.4414H235.529V11.1709H257.888V14.4414H248.966V31.2365H244.452Z" fill="black"/>
<path fill-rule="evenodd" clip-rule="evenodd" d="M172.646 11.0637C168.129 11.0637 164.466 14.713 164.466 19.2145V22.9177C164.466 27.4193 168.129 31.0685 172.646 31.0685H200.21C204.729 31.0685 208.39 27.4193 208.39 22.9177V19.2145C208.39 14.713 204.729 11.0637 200.21 11.0637H172.646ZM173.737 14.9261C171.026 14.9261 168.828 17.1157 168.828 19.8165V22.3157C168.828 25.0167 171.026 27.2062 173.737 27.2062H199.12C201.83 27.2062 204.028 25.0167 204.028 22.3157V19.8165C204.028 17.1157 201.83 14.9261 199.12 14.9261H173.737Z" fill="#031022"/>
<path d="M186.429 23.2827C187.715 23.2827 188.758 22.2435 188.758 20.9616C188.758 19.6798 187.715 18.6406 186.429 18.6406C185.142 18.6406 184.099 19.6798 184.099 20.9616C184.099 22.2435 185.142 23.2827 186.429 23.2827Z" fill="#031022"/>
</svg>
