<svg xmlns="http://www.w3.org/2000/svg" width="58" height="57" viewBox="0 0 58 57" fill="none">
  <path fill-rule="evenodd" clip-rule="evenodd" d="M29.1235 2.96875H28.8765C26.7427 2.96869 24.9632 2.96863 23.5506 3.15855C22.0596 3.35901 20.7135 3.79998 19.6317 4.88172C18.55 5.96346 18.109 7.30961 17.9085 8.80062C17.7186 10.2132 17.7187 11.9926 17.7188 14.1265V14.3111C12.9185 14.4681 10.0359 15.0291 8.03249 17.0325C5.25 19.815 5.25 24.2933 5.25 33.25C5.25 42.2067 5.25 46.685 8.03249 49.4675C10.815 52.25 15.2933 52.25 24.25 52.25H33.75C42.7067 52.25 47.185 52.25 49.9675 49.4675C52.75 46.685 52.75 42.2067 52.75 33.25C52.75 24.2933 52.75 19.815 49.9675 17.0325C47.9641 15.0291 45.0816 14.4681 40.2813 14.3111V14.1265C40.2813 11.9927 40.2814 10.2132 40.0915 8.80062C39.891 7.30961 39.45 5.96346 38.3683 4.88172C37.2866 3.79998 35.9404 3.35901 34.4494 3.15855C33.0368 2.96863 31.2574 2.96869 29.1235 2.96875ZM36.7188 14.2545V14.25C36.7188 11.9605 36.715 10.4225 36.5607 9.27531C36.4134 8.17934 36.1587 7.71029 35.8492 7.40079C35.5397 7.09128 35.0707 6.83663 33.9747 6.68928C32.8275 6.53504 31.2895 6.53126 29 6.53126C26.7105 6.53126 25.1725 6.53504 24.0253 6.68928C22.9293 6.83663 22.4603 7.09128 22.1508 7.40079C21.8413 7.71029 21.5866 8.17934 21.4393 9.27531C21.285 10.4225 21.2813 11.9605 21.2813 14.25V14.2545C22.2123 14.25 23.2004 14.25 24.25 14.25H33.75C34.7996 14.25 35.7877 14.25 36.7188 14.2545ZM40.875 21.375C40.875 22.6867 39.8117 23.75 38.5 23.75C37.1883 23.75 36.125 22.6867 36.125 21.375C36.125 20.0633 37.1883 19 38.5 19C39.8117 19 40.875 20.0633 40.875 21.375ZM19.5 23.75C20.8117 23.75 21.875 22.6867 21.875 21.375C21.875 20.0633 20.8117 19 19.5 19C18.1883 19 17.125 20.0633 17.125 21.375C17.125 22.6867 18.1883 23.75 19.5 23.75Z" fill="url(#paint0_linear_3486_33186)"/>
  <defs>
    <linearGradient id="paint0_linear_3486_33186" x1="29" y1="2.96875" x2="29" y2="52.25" gradientUnits="userSpaceOnUse">
      <stop stop-color="#AED1FF"/>
      <stop offset="1" stop-color="#408EF6"/>
    </linearGradient>
  </defs>
</svg>