<svg xmlns="http://www.w3.org/2000/svg" width="24" height="24" viewBox="0 0 24 24" fill="none">
    <path fill-rule="evenodd" clip-rule="evenodd" d="M9.5924 3.20271C9.34888 3.41025 9.22711 3.51402 9.09706 3.60118C8.79896 3.80098 8.46417 3.93966 8.1121 4.00916C7.95851 4.03949 7.79903 4.05221 7.48008 4.07767C6.6787 4.14162 6.278 4.17359 5.94371 4.29167C5.17051 4.56477 4.56233 5.17295 4.28923 5.94615C4.17115 6.28044 4.13918 6.68114 4.07522 7.48252C4.04977 7.80148 4.03705 7.96095 4.00672 8.11454C3.93721 8.46661 3.79854 8.8014 3.59874 9.0995C3.51158 9.22955 3.40781 9.35131 3.20027 9.59485C2.67883 10.2067 2.4181 10.5127 2.26522 10.8325C1.91159 11.5724 1.91159 12.4325 2.26522 13.1723C2.41811 13.4922 2.67883 13.7982 3.20027 14.41C3.40778 14.6535 3.51158 14.7753 3.59874 14.9054C3.79854 15.2035 3.93721 15.5383 4.00672 15.8903C4.03705 16.0439 4.04977 16.2034 4.07522 16.5224C4.13918 17.3237 4.17115 17.7244 4.28923 18.0587C4.56233 18.8319 5.17051 19.4401 5.94371 19.7132C6.278 19.8313 6.6787 19.8633 7.48008 19.9272C7.79903 19.9527 7.95851 19.9654 8.1121 19.9957C8.46417 20.0652 8.79896 20.2039 9.09706 20.4037C9.22711 20.4909 9.34887 20.5946 9.5924 20.8022C10.2043 21.3236 10.5102 21.5843 10.8301 21.7372C11.57 22.0908 12.43 22.0908 13.1699 21.7372C13.4898 21.5843 13.7957 21.3236 14.4076 20.8022C14.6511 20.5946 14.7729 20.4909 14.9029 20.4037C15.201 20.2039 15.5358 20.0652 15.8879 19.9957C16.0415 19.9654 16.201 19.9527 16.5199 19.9272C17.3213 19.8633 17.722 19.8313 18.0563 19.7132C18.8295 19.4401 19.4377 18.8319 19.7108 18.0587C19.8288 17.7244 19.8608 17.3237 19.9248 16.5224C19.9502 16.2034 19.963 16.0439 19.9933 15.8903C20.0628 15.5383 20.2015 15.2035 20.4013 14.9054C20.4884 14.7753 20.5922 14.6536 20.7997 14.41C21.3212 13.7982 21.5819 13.4922 21.7348 13.1723C22.0884 12.4325 22.0884 11.5724 21.7348 10.8325C21.5819 10.5127 21.3212 10.2067 20.7997 9.59485C20.5922 9.35131 20.4884 9.22955 20.4013 9.0995C20.2015 8.8014 20.0628 8.46661 19.9933 8.11454C19.963 7.96095 19.9502 7.80148 19.9248 7.48252C19.8608 6.68114 19.8288 6.28044 19.7108 5.94615C19.4377 5.17295 18.8295 4.56477 18.0563 4.29167C17.722 4.17359 17.3213 4.14162 16.5199 4.07767C16.201 4.05221 16.0415 4.03949 15.8879 4.00916C15.5358 3.93966 15.201 3.80098 14.9029 3.60118C14.7729 3.51402 14.6511 3.41025 14.4076 3.20271C13.7957 2.68127 13.4898 2.42055 13.1699 2.26766C12.43 1.91404 11.57 1.91404 10.8301 2.26766C10.5102 2.42055 10.2043 2.68127 9.5924 3.20271ZM15.8309 8.17203C16.1487 8.48986 16.1487 9.00517 15.8309 9.323L9.32003 15.8339C9.0022 16.1517 8.48689 16.1517 8.16906 15.8339C7.85123 15.5161 7.85123 15.0007 8.16906 14.6829L14.6799 8.17203C14.9978 7.8542 15.5131 7.8542 15.8309 8.17203ZM15.798 14.7158C15.798 15.3151 15.3122 15.801 14.7129 15.801C14.1135 15.801 13.6277 15.3151 13.6277 14.7158C13.6277 14.1165 14.1135 13.6307 14.7129 13.6307C15.3122 13.6307 15.798 14.1165 15.798 14.7158ZM9.28712 10.3752C9.88643 10.3752 10.3723 9.8894 10.3723 9.29009C10.3723 8.69078 9.88643 8.20494 9.28712 8.20494C8.68781 8.20494 8.20197 8.69078 8.20197 9.29009C8.20197 9.8894 8.68781 10.3752 9.28712 10.3752Z" fill="#A8B1BE"/>
  </svg>