<svg xmlns="http://www.w3.org/2000/svg" width="24" height="24" viewBox="0 0 24 24" fill="none">
    <path d="M22 5.00244C22 6.6593 20.6569 8.00244 19 8.00244C17.3431 8.00244 16 6.6593 16 5.00244C16 3.34559 17.3431 2.00244 19 2.00244C20.6569 2.00244 22 3.34559 22 5.00244Z" fill="#A8B1BE"/>
    <path fill-rule="evenodd" clip-rule="evenodd" d="M15.612 2.0407C14.59 2.00244 13.3988 2.00244 12 2.00244C7.28595 2.00244 4.92893 2.00244 3.46447 3.46691C2 4.93137 2 7.2884 2 12.0024C2 16.7165 2 19.0735 3.46447 20.538C4.92893 22.0024 7.28595 22.0024 12 22.0024C16.714 22.0024 19.0711 22.0024 20.5355 20.538C22 19.0735 22 16.7165 22 12.0024C22 10.6037 22 9.41244 21.9617 8.39046C21.1703 9.08286 20.1342 9.50244 19 9.50244C16.5147 9.50244 14.5 7.48772 14.5 5.00244C14.5 3.86828 14.9196 2.83211 15.612 2.0407ZM17.4801 9.42628C17.7983 9.69145 17.8413 10.1644 17.5762 10.4826L15.7473 12.6772C15.4189 13.0714 15.1228 13.4268 14.8462 13.6766C14.5452 13.9484 14.1662 14.1904 13.6667 14.1904C13.1672 14.1904 12.7881 13.9484 12.4872 13.6766C12.2106 13.4268 11.9145 13.0714 11.586 12.6772L11.2936 12.3263C10.9228 11.8814 10.6951 11.6109 10.5075 11.4415C10.4205 11.363 10.3689 11.3317 10.3442 11.3197C10.3392 11.3173 10.3356 11.3158 10.3333 11.315L10.3292 11.3166L10.3225 11.3197C10.2977 11.3317 10.2461 11.363 10.1591 11.4415C9.97155 11.6109 9.74385 11.8814 9.37306 12.3263L7.57617 14.4826C7.31099 14.8008 6.83807 14.8438 6.51986 14.5786C6.20165 14.3134 6.15866 13.8405 6.42383 13.5223L8.25267 11.3277C8.58113 10.9335 8.87725 10.578 9.15384 10.3283C9.45478 10.0565 9.83384 9.81449 10.3333 9.81449C10.8328 9.81449 11.2119 10.0565 11.5128 10.3283C11.7894 10.578 12.0855 10.9334 12.414 11.3277L12.7064 11.6786C13.0772 12.1235 13.3049 12.3939 13.4925 12.5633C13.5795 12.6419 13.6311 12.6732 13.6558 12.6852L13.659 12.6867C13.6624 12.6882 13.6667 12.6899 13.6667 12.6899C13.6689 12.6891 13.6725 12.6876 13.6775 12.6852C13.7023 12.6732 13.7539 12.6419 13.8409 12.5633C14.0284 12.3939 14.2562 12.1235 14.6269 11.6786L16.4238 9.5223C16.689 9.2041 17.1619 9.1611 17.4801 9.42628Z" fill="#A8B1BE"/>
  </svg>