<svg xmlns="http://www.w3.org/2000/svg" width="43" height="43" viewBox="0 0 24 24" fill="none">
    <path fill-rule="evenodd" clip-rule="evenodd" d="M21.2516 9.64908C21.1915 9.64525 21.1261 9.64528 21.0582 9.6453L21.0413 9.64531H18.3817C16.1895 9.64531 14.3137 11.3845 14.3137 13.6524C14.3137 15.9204 16.1895 17.6596 18.3817 17.6596H21.0413L21.0582 17.6596C21.1261 17.6596 21.1915 17.6597 21.2516 17.6558C22.142 17.5992 22.9295 16.8968 22.9957 15.9159C23.0001 15.8516 23 15.7823 23 15.718L23 15.7005V11.6044L23 11.5869C23 11.5227 23.0001 11.4533 22.9957 11.389C22.9295 10.4081 22.142 9.70574 21.2516 9.64908ZM18.1459 14.721C18.7103 14.721 19.1678 14.2426 19.1678 13.6524C19.1678 13.0623 18.7103 12.5839 18.1459 12.5839C17.5815 12.5839 17.124 13.0623 17.124 13.6524C17.124 14.2426 17.5815 14.721 18.1459 14.721Z" fill="#A8B1BE"/>
    <path fill-rule="evenodd" clip-rule="evenodd" d="M21.0576 19.2625C21.2156 19.2583 21.3353 19.4059 21.2924 19.5593C21.0795 20.3206 20.7417 20.9695 20.1996 21.5158C19.4062 22.3155 18.4001 22.6704 17.157 22.8388C15.9492 23.0025 14.4059 23.0025 12.4574 23.0024H10.2173C8.26883 23.0025 6.72551 23.0025 5.51766 22.8388C4.27461 22.6704 3.2685 22.3155 2.47505 21.5158C1.68161 20.7161 1.32948 19.7021 1.16236 18.4493C0.99997 17.232 0.999984 15.6765 1 13.7127V13.5922C0.999983 11.6284 0.99997 10.0729 1.16236 8.8556C1.32948 7.60278 1.68161 6.58876 2.47505 5.78909C3.2685 4.98941 4.27461 4.63451 5.51766 4.46608C6.7255 4.30241 8.26883 4.30243 10.2173 4.30244L12.4574 4.30244C14.4059 4.30242 15.9492 4.30241 17.157 4.46608C18.4001 4.63451 19.4062 4.9894 20.1996 5.78908C20.7417 6.33542 21.0795 6.98428 21.2924 7.74557C21.3353 7.89899 21.2156 8.04658 21.0575 8.04245L18.3816 8.04245C15.3741 8.04245 12.7232 10.437 12.7232 13.6524C12.7232 16.8679 15.3741 19.2625 18.3816 19.2625L21.0576 19.2625ZM4.9759 8.57673C4.53674 8.57673 4.18072 8.93554 4.18072 9.37816C4.18072 9.82077 4.53674 10.1796 4.9759 10.1796H9.21687C9.65603 10.1796 10.012 9.82077 10.012 9.37816C10.012 8.93554 9.65603 8.57673 9.21687 8.57673H4.9759Z" fill="#A8B1BE"/>
    <path d="M7.35435 3.22927L9.50903 1.64183C10.6662 0.789313 12.2338 0.789313 13.391 1.64183L15.557 3.23761C14.6513 3.20239 13.64 3.20242 12.5312 3.20244H10.1436C9.13035 3.20242 8.19851 3.2024 7.35435 3.22927Z" fill="#A8B1BE"/>
  </svg>