<svg xmlns="http://www.w3.org/2000/svg" width="43" height="43" viewBox="0 0 43 43" fill="none">
    <path fill-rule="evenodd" clip-rule="evenodd" d="M35.6094 36.8934C34.4599 35.918 32.7276 35.918 31.5781 36.8934C30.4286 37.8689 28.6964 37.8689 27.5469 36.8934C26.3974 35.918 24.6651 35.918 23.5156 36.8934C22.3661 37.8689 20.6339 37.8689 19.4844 36.8934C18.3349 35.918 16.6026 35.918 15.4531 36.8934C14.3036 37.8689 12.5714 37.8689 11.4219 36.8934C10.2724 35.918 8.54013 35.918 7.39063 36.8934C6.60962 37.5562 5.375 37.0269 5.375 36.0294V6.97064C5.375 5.97311 6.60962 5.44384 7.39063 6.10656C8.54013 7.08198 10.2724 7.08198 11.4219 6.10656C12.5714 5.13115 14.3036 5.13115 15.4531 6.10656C16.6026 7.08198 18.3349 7.08198 19.4844 6.10656C20.6339 5.13115 22.3661 5.13115 23.5156 6.10656C24.6651 7.08198 26.3974 7.08198 27.5469 6.10656C28.6964 5.13115 30.4286 5.13115 31.5781 6.10656C32.7276 7.08198 34.4599 7.08198 35.6094 6.10656C36.3904 5.44384 37.625 5.97311 37.625 6.97064V36.0294C37.625 37.0269 36.3904 37.5562 35.6094 36.8934ZM12.0938 21.5C12.0938 20.7579 12.6954 20.1563 13.4375 20.1563H29.5625C30.3046 20.1563 30.9062 20.7579 30.9062 21.5C30.9062 22.2421 30.3046 22.8438 29.5625 22.8438H13.4375C12.6954 22.8438 12.0938 22.2421 12.0938 21.5ZM13.4375 13.8854C12.6954 13.8854 12.0938 14.487 12.0938 15.2292C12.0938 15.9713 12.6954 16.5729 13.4375 16.5729H29.5625C30.3046 16.5729 30.9062 15.9713 30.9062 15.2292C30.9062 14.487 30.3046 13.8854 29.5625 13.8854H13.4375ZM12.0938 27.7708C12.0938 27.0287 12.6954 26.4271 13.4375 26.4271H29.5625C30.3046 26.4271 30.9062 27.0287 30.9062 27.7708C30.9062 28.513 30.3046 29.1146 29.5625 29.1146H13.4375C12.6954 29.1146 12.0938 28.513 12.0938 27.7708Z" fill="#A8B1BE"/>
  </svg>