<svg xmlns="http://www.w3.org/2000/svg" width="24" height="24" viewBox="0 0 24 24" fill="none">
    <g clip-path="url(#clip0_1830_2582)">
      <path fill-rule="evenodd" clip-rule="evenodd" d="M12 24.0024C18.6274 24.0024 24 18.6299 24 12.0024C24 5.37502 18.6274 0.00244141 12 0.00244141C5.37258 0.00244141 0 5.37502 0 12.0024C0 18.6299 5.37258 24.0024 12 24.0024ZM12.9 4.80244C12.9 4.30539 12.4971 3.90244 12 3.90244C11.5029 3.90244 11.1 4.30539 11.1 4.80244V5.18252C9.14348 5.53284 7.5 7.00277 7.5 9.00244C7.5 11.303 9.67533 12.9024 12 12.9024C13.6518 12.9024 14.7 13.9893 14.7 15.0024C14.7 16.0156 13.6518 17.1024 12 17.1024C10.3482 17.1024 9.3 16.0156 9.3 15.0024C9.3 14.5054 8.89706 14.1024 8.4 14.1024C7.90294 14.1024 7.5 14.5054 7.5 15.0024C7.5 17.0021 9.14348 18.472 11.1 18.8224V19.2024C11.1 19.6995 11.5029 20.1024 12 20.1024C12.4971 20.1024 12.9 19.6995 12.9 19.2024V18.8224C14.8565 18.472 16.5 17.0021 16.5 15.0024C16.5 12.7019 14.3247 11.1024 12 11.1024C10.3482 11.1024 9.3 10.0156 9.3 9.00244C9.3 7.98932 10.3482 6.90244 12 6.90244C13.6518 6.90244 14.7 7.98932 14.7 9.00244C14.7 9.4995 15.1029 9.90244 15.6 9.90244C16.0971 9.90244 16.5 9.4995 16.5 9.00244C16.5 7.00277 14.8565 5.53284 12.9 5.18252V4.80244Z" fill="#A8B1BE"/>
    </g>
    <defs>
      <clipPath id="clip0_1830_2582">
        <rect width="24" height="24" fill="white" transform="translate(0 0.00244141)"/>
      </clipPath>
    </defs>
  </svg>