<svg xmlns="http://www.w3.org/2000/svg" width="24" height="24" viewBox="0 0 24 24" fill="none">
    <path fill-rule="evenodd" clip-rule="evenodd" d="M4.17157 3.17401C3 4.34559 3 6.2312 3 10.0024V14.0024C3 17.7737 3 19.6593 4.17157 20.8309C5.34315 22.0024 7.22876 22.0024 11 22.0024H13C16.7712 22.0024 18.6569 22.0024 19.8284 20.8309C21 19.6593 21 17.7737 21 14.0024V10.0024C21 6.2312 21 4.34559 19.8284 3.17401C18.6569 2.00244 16.7712 2.00244 13 2.00244H11C7.22876 2.00244 5.34315 2.00244 4.17157 3.17401ZM7.25 8.00244C7.25 7.58823 7.58579 7.25244 8 7.25244H16C16.4142 7.25244 16.75 7.58823 16.75 8.00244C16.75 8.41666 16.4142 8.75244 16 8.75244H8C7.58579 8.75244 7.25 8.41666 7.25 8.00244ZM7.25 12.0024C7.25 11.5882 7.58579 11.2524 8 11.2524H16C16.4142 11.2524 16.75 11.5882 16.75 12.0024C16.75 12.4167 16.4142 12.7524 16 12.7524H8C7.58579 12.7524 7.25 12.4167 7.25 12.0024ZM8 15.2524C7.58579 15.2524 7.25 15.5882 7.25 16.0024C7.25 16.4167 7.58579 16.7524 8 16.7524H13C13.4142 16.7524 13.75 16.4167 13.75 16.0024C13.75 15.5882 13.4142 15.2524 13 15.2524H8Z" fill="#A8B1BE"/>
  </svg>