<svg width="24" height="24" viewBox="0 0 24 24" fill="none" xmlns="http://www.w3.org/2000/svg">
<g id="Home ">
<path id="Vector" fill-rule="evenodd" clip-rule="evenodd" d="M2.5192 7.82518C2 8.77372 2 9.91793 2 12.2064V13.7274C2 17.6283 2 19.5787 3.17157 20.7906C4.34315 22.0024 6.22876 22.0024 10 22.0024H14C17.7712 22.0024 19.6569 22.0024 20.8284 20.7906C22 19.5787 22 17.6283 22 13.7274V12.2064C22 9.91793 22 8.77372 21.4808 7.82518C20.9616 6.87665 20.0131 6.28795 18.116 5.11057L16.116 3.86931C14.1106 2.62473 13.1079 2.00244 12 2.00244C10.8921 2.00244 9.88939 2.62473 7.88403 3.86931L5.88403 5.11057C3.98695 6.28795 3.0384 6.87665 2.5192 7.82518ZM9 17.2524C8.58579 17.2524 8.25 17.5882 8.25 18.0024C8.25 18.4167 8.58579 18.7524 9 18.7524H15C15.4142 18.7524 15.75 18.4167 15.75 18.0024C15.75 17.5882 15.4142 17.2524 15 17.2524H9Z" fill="#A8B1BE"/>
</g>
</svg>
