<svg xmlns="http://www.w3.org/2000/svg" width="24" height="24" viewBox="0 0 24 24" fill="none">
    <path d="M9.5 2.00244C8.67157 2.00244 8 2.67401 8 3.50244V4.50244C8 5.33087 8.67157 6.00244 9.5 6.00244H14.5C15.3284 6.00244 16 5.33087 16 4.50244V3.50244C16 2.67401 15.3284 2.00244 14.5 2.00244H9.5Z" fill="#A8B1BE"/>
    <path fill-rule="evenodd" clip-rule="evenodd" d="M6.5 4.03906C5.24209 4.10963 4.44798 4.31008 3.87868 4.87938C3 5.75806 3 7.17228 3 10.0007V16.0007C3 18.8291 3 20.2433 3.87868 21.122C4.75736 22.0007 6.17157 22.0007 9 22.0007H15C17.8284 22.0007 19.2426 22.0007 20.1213 21.122C21 20.2433 21 18.8291 21 16.0007V10.0007C21 7.17228 21 5.75806 20.1213 4.87938C19.552 4.31008 18.7579 4.10963 17.5 4.03906V4.50244C17.5 6.1593 16.1569 7.50244 14.5 7.50244H9.5C7.84315 7.50244 6.5 6.1593 6.5 4.50244V4.03906ZM15.5117 12.5507C15.8146 12.2681 15.8309 11.7935 15.5483 11.4907C15.2657 11.1879 14.7911 11.1715 14.4883 11.4542L10.7143 14.9765L9.51174 13.8542C9.20893 13.5715 8.73434 13.5879 8.45171 13.8907C8.16909 14.1935 8.18545 14.6681 8.48826 14.9507L10.2025 16.5507C10.4907 16.8197 10.9379 16.8197 11.226 16.5507L15.5117 12.5507Z" fill="#A8B1BE"/>
  </svg>