<svg width="29" height="27" viewBox="0 0 29 27" fill="none" xmlns="http://www.w3.org/2000/svg">
<g id="icon">
<path id="Vector" d="M28.8441 3.11321L24.5659 25.1839L24.5466 25.2339C24.5436 25.2415 24.3456 25.7372 23.8758 26.1186C23.5662 26.3694 23.0895 26.5193 22.6008 26.5193C22.2567 26.5193 21.9188 26.4471 21.5961 26.3049L21.5403 26.2808L16.8882 22.686C16.5591 22.4317 16.1493 22.2915 15.7342 22.2915C15.2608 22.2915 14.8072 22.4682 14.4576 22.7888L11.94 25.0977L11.9191 25.1142C11.9191 25.1142 11.6115 25.336 11.214 25.336C11.1093 25.336 11.0049 25.3205 10.9039 25.2897L10.8598 25.2762L10.8535 25.2753L11.265 19.9243C11.3517 18.7982 11.8503 17.7434 12.6652 16.9615L18.3503 11.5086C18.8883 10.9925 18.2326 10.1377 17.5947 10.5238L7.49876 16.6344L1.71064 14.671C1.61276 14.6301 1.38956 14.5284 1.16186 14.365C0.704664 14.0385 0.455589 13.6567 0.398889 13.1973C0.357039 12.869 0.481239 12.5472 0.611514 12.3546C0.778914 12.1074 0.972864 11.9636 1.10449 11.8772C1.40464 11.6695 1.68791 11.557 1.76801 11.5271L1.79479 11.5165C2.18921 11.3491 7.96046 8.89864 13.8276 6.41014L22.3004 2.81599L23.6034 2.26541C25.1061 1.63046 26.1328 1.19644 26.4717 1.05806L26.5335 1.03489C26.7491 0.950511 27.0735 0.836436 27.4005 0.821136C27.4257 0.820011 27.4511 0.819336 27.477 0.819336C27.7566 0.819336 28.0136 0.892011 28.2629 1.04164C28.5365 1.20476 28.7795 1.53641 28.8693 1.86806C28.9633 2.21524 28.9554 2.61124 28.8441 3.11321Z" fill="#408EF6"/>
</g>
</svg>
