<svg width="20" height="20" viewBox="0 0 20 20" fill="none" xmlns="http://www.w3.org/2000/svg">
<path fill-rule="evenodd" clip-rule="evenodd" d="M1.46447 18.5355C2.92893 20 5.28595 20 10 20C14.714 20 17.0711 20 18.5355 18.5355C20 17.0711 20 14.714 20 10C20 5.28595 20 2.92893 18.5355 1.46447C17.0711 0 14.714 0 10 0C5.28595 0 2.92893 0 1.46447 1.46447C0 2.92893 0 5.28595 0 10C0 14.714 0 17.0711 1.46447 18.5355ZM16.75 14C16.75 14.4142 16.4142 14.75 16 14.75H4C3.58579 14.75 3.25 14.4142 3.25 14C3.25 13.5858 3.58579 13.25 4 13.25H16C16.4142 13.25 16.75 13.5858 16.75 14ZM16 10.75C16.4142 10.75 16.75 10.4142 16.75 10C16.75 9.58579 16.4142 9.25 16 9.25H4C3.58579 9.25 3.25 9.58579 3.25 10C3.25 10.4142 3.58579 10.75 4 10.75H16ZM16.75 6C16.75 6.41421 16.4142 6.75 16 6.75H4C3.58579 6.75 3.25 6.41421 3.25 6C3.25 5.58579 3.58579 5.25 4 5.25H16C16.4142 5.25 16.75 5.58579 16.75 6Z" fill="#A8B1BE"/>
</svg>
