<svg xmlns="http://www.w3.org/2000/svg" width="24" height="24" viewBox="0 0 24 24" fill="none">
    <path d="M10 4.00244H14C17.7712 4.00244 19.6569 4.00244 20.8284 5.17401C21.672 6.01755 21.9082 7.23126 21.9743 9.25244H2.02572C2.09185 7.23126 2.32803 6.01755 3.17157 5.17401C4.34315 4.00244 6.22876 4.00244 10 4.00244Z" fill="#A8B1BE"/>
    <path fill-rule="evenodd" clip-rule="evenodd" d="M21.9995 12.82L21.591 12.4115C20.7123 11.5328 19.2877 11.5328 18.409 12.4115L17.6076 13.2129C17.2878 12.3597 16.4648 11.7524 15.5 11.7524C14.2574 11.7524 13.25 12.7598 13.25 14.0024V15.7663C12.7601 15.8207 12.2847 16.0358 11.909 16.4115C11.0303 17.2901 11.0303 18.7148 11.909 19.5934L12.318 20.0024H10C6.22876 20.0024 4.34315 20.0024 3.17157 18.8309C2 17.6593 2 15.7737 2 12.0024C2 11.5605 2 11.1445 2.00189 10.7524H21.9981C22 11.1445 22 11.5605 22 12.0024C22 12.2854 22 12.5577 21.9995 12.82ZM6 15.2524C5.58579 15.2524 5.25 15.5882 5.25 16.0024C5.25 16.4167 5.58579 16.7524 6 16.7524H10C10.4142 16.7524 10.75 16.4167 10.75 16.0024C10.75 15.5882 10.4142 15.2524 10 15.2524H6Z" fill="#A8B1BE"/>
    <path fill-rule="evenodd" clip-rule="evenodd" d="M15.5 13.2524C15.9142 13.2524 16.25 13.5882 16.25 14.0024V18.1918L16.9697 17.4721C17.2626 17.1792 17.7374 17.1792 18.0303 17.4721C18.3232 17.765 18.3232 18.2399 18.0303 18.5328L16.0303 20.5328C15.7374 20.8257 15.2626 20.8257 14.9697 20.5328L12.9697 18.5328C12.6768 18.2399 12.6768 17.765 12.9697 17.4721C13.2626 17.1792 13.7374 17.1792 14.0303 17.4721L14.75 18.1918V14.0024C14.75 13.5882 15.0858 13.2524 15.5 13.2524ZM19.4697 13.4721C19.7626 13.1792 20.2374 13.1792 20.5303 13.4721L22.5303 15.4721C22.8232 15.765 22.8232 16.2399 22.5303 16.5328C22.2374 16.8257 21.7626 16.8257 21.4697 16.5328L20.75 15.8131V20.0024C20.75 20.4167 20.4142 20.7524 20 20.7524C19.5858 20.7524 19.25 20.4167 19.25 20.0024V15.8131L18.5303 16.5328C18.2374 16.8257 17.7626 16.8257 17.4697 16.5328C17.1768 16.2399 17.1768 15.765 17.4697 15.4721L19.4697 13.4721Z" fill="#A8B1BE"/>
  </svg>