<svg xmlns="http://www.w3.org/2000/svg" width="16" height="16" viewBox="0 0 16 16" fill="none">
  <g clip-path="url(#clip0_3478_32613)">
    <path d="M8 16C12.4183 16 16 12.4183 16 8C16 3.58172 12.4183 0 8 0C3.58172 0 0 3.58172 0 8C0 12.4183 3.58172 16 8 16Z" fill="white"/>
    <path d="M15.5024 10.7839C15.824 9.91728 16 8.97991 16 8.00134C16 7.02278 15.824 6.08541 15.5024 5.21875H0.497594C0.176031 6.08541 0 7.02278 0 8.00134C0 8.97991 0.176031 9.91728 0.497594 10.7839L8 11.4796L15.5024 10.7839Z" fill="#0052B4"/>
    <path d="M8.00045 15.9987C11.4402 15.9987 14.3725 13.8277 15.5029 10.7812H0.498047C1.62839 13.8277 4.56073 15.9987 8.00045 15.9987Z" fill="#D80027"/>
  </g>
  <defs>
    <clipPath id="clip0_3478_32613">
      <rect width="16" height="16" fill="white"/>
    </clipPath>
  </defs>
</svg>