<svg width="24" height="24" viewBox="0 0 24 24" fill="none" xmlns="http://www.w3.org/2000/svg">
  <g clip-path="url(#clip0_206_3643)">
    <path fill-rule="evenodd" clip-rule="evenodd" d="M12 24C18.6274 24 24 18.6274 24 12C24 5.37258 18.6274 0 12 0C5.37258 0 0 5.37258 0 12C0 18.6274 5.37258 24 12 24ZM15.6 6C16.0971 6 16.5 6.40294 16.5 6.9C16.5 7.39706 16.0971 7.8 15.6 7.8H11.4V10.5H15.6C16.0971 10.5 16.5 10.9029 16.5 11.4C16.5 11.8971 16.0971 12.3 15.6 12.3H11.4V14.1H15.6C16.0971 14.1 16.5 14.5029 16.5 15C16.5 15.4971 16.0971 15.9 15.6 15.9H11.4V17.7C11.4 18.1971 10.9971 18.6 10.5 18.6C10.0029 18.6 9.6 18.1971 9.6 17.7V15.9H8.1C7.60294 15.9 7.2 15.4971 7.2 15C7.2 14.5029 7.60294 14.1 8.1 14.1H9.6V12.3H8.1C7.60294 12.3 7.2 11.8971 7.2 11.4C7.2 10.9029 7.60294 10.5 8.1 10.5H9.6V6.9C9.6 6.40294 10.0029 6 10.5 6H15.6Z" fill="#A8B1BE"/>
  </g>
  <defs>
    <clipPath id="clip0_206_3643">
      <rect width="24" height="24" fill="white"/>
    </clipPath>
  </defs>
</svg>
