<svg width="24" height="24" viewBox="0 0 24 24" fill="none" xmlns="http://www.w3.org/2000/svg">
<g clip-path="url(#clip0_206_3643)">
<path fill-rule="evenodd" clip-rule="evenodd" d="M12 24C18.6274 24 24 18.6274 24 12C24 5.37258 18.6274 0 12 0C5.37258 0 0 5.37258 0 12C0 18.6274 5.37258 24 12 24ZM5.7 12C5.7 11.6944 5.72176 11.3939 5.7638 11.1H9.6C10.0971 11.1 10.5 10.6971 10.5 10.2C10.5 9.70294 10.0971 9.3 9.6 9.3H6.30627C7.31739 7.17155 9.48684 5.7 12 5.7C13.149 5.7 14.2236 6.00677 15.1493 6.54228C15.5796 6.79117 16.1302 6.64414 16.379 6.21389C16.6279 5.78363 16.4809 5.23308 16.0507 4.98419C14.8583 4.29447 13.4739 3.9 12 3.9C8.47321 3.9 5.47286 6.15398 4.36091 9.3H3.6C3.10294 9.3 2.7 9.70294 2.7 10.2C2.7 10.6971 3.10294 11.1 3.6 11.1H3.94944C3.91677 11.3955 3.9 11.6958 3.9 12C3.9 12.3042 3.91677 12.6045 3.94944 12.9H3.6C3.10294 12.9 2.7 13.3029 2.7 13.8C2.7 14.2971 3.10294 14.7 3.6 14.7H4.36091C5.47286 17.846 8.47321 20.1 12 20.1C13.4739 20.1 14.8583 19.7055 16.0507 19.0158C16.4809 18.7669 16.6279 18.2164 16.379 17.7861C16.1302 17.3559 15.5796 17.2088 15.1493 17.4577C14.2236 17.9932 13.149 18.3 12 18.3C9.48684 18.3 7.31739 16.8285 6.30627 14.7H9.6C10.0971 14.7 10.5 14.2971 10.5 13.8C10.5 13.3029 10.0971 12.9 9.6 12.9H5.7638C5.72176 12.6061 5.7 12.3056 5.7 12Z" fill="#A8B1BE"/>
</g>
<defs>
<clipPath id="clip0_206_3643">
<rect width="24" height="24" fill="white"/>
</clipPath>
</defs>
</svg>
