<svg width="24" height="24" viewBox="0 0 24 24" fill="none" xmlns="http://www.w3.org/2000/svg">
<g clip-path="url(#clip0_206_3636)">
<path d="M13.8 11.1H10.5V7.44C10.5 7.32364 10.5001 7.25438 10.5015 7.20216C10.5024 7.16902 10.5037 7.15463 10.504 7.15116C10.5249 7.02434 10.6243 6.92492 10.7512 6.904C10.7546 6.90366 10.769 6.90242 10.8022 6.90151C10.8544 6.90008 10.9236 6.9 11.04 6.9H13.8C14.9598 6.9 15.9 7.8402 15.9 9C15.9 10.1598 14.9598 11.1 13.8 11.1Z" fill="#A8B1BE"/>
<path fill-rule="evenodd" clip-rule="evenodd" d="M24 12C24 18.6274 18.6274 24 12 24C5.37258 24 0 18.6274 0 12C0 5.37258 5.37258 0 12 0C18.6274 0 24 5.37258 24 12ZM7.5 14.4C7.5 13.9029 7.90294 13.5 8.4 13.5H8.7V12.9H8.4C7.90294 12.9 7.5 12.4971 7.5 12C7.5 11.5029 7.90294 11.1 8.4 11.1H8.7L8.69996 7.39381C8.69975 7.21918 8.69954 7.03766 8.72585 6.87149C8.86818 5.97291 9.57291 5.26818 10.4715 5.12585C10.6376 5.09954 10.8192 5.09975 10.9938 5.09996L13.8 5.1C15.9539 5.1 17.7 6.84609 17.7 9C17.7 11.1539 15.9539 12.9 13.8 12.9H10.5V13.5H12C12.4971 13.5 12.9 13.9029 12.9 14.4C12.9 14.8971 12.4971 15.3 12 15.3H10.5V18C10.5 18.4971 10.0971 18.9 9.6 18.9C9.10294 18.9 8.7 18.4971 8.7 18V15.3H8.4C7.90294 15.3 7.5 14.8971 7.5 14.4Z" fill="#A8B1BE"/>
</g>
<defs>
<clipPath id="clip0_206_3636">
<rect width="24" height="24" fill="white"/>
</clipPath>
</defs>
</svg>
