<svg xmlns="http://www.w3.org/2000/svg" width="24" height="24" viewBox="0 0 24 24" fill="none">
    <rect width="24" height="24" rx="12" fill="#A8B1BE"/>    
    <path d="M16.8 12C16.5878 12 16.3843 12.0843 16.2343 12.2343C16.0843 12.3843 16 12.5878 16 12.8C16.0004 14.1469 15.5153 15.4487 14.6337 16.467C13.7521 17.4852 12.533 18.1516 11.2 18.344V13.296L13.96 11.912C14.0616 11.8697 14.1533 11.8069 14.2295 11.7276C14.3057 11.6482 14.3647 11.554 14.4029 11.4508C14.441 11.3476 14.4574 11.2377 14.4512 11.1279C14.4449 11.018 14.416 10.9107 14.3664 10.8125C14.3168 10.7143 14.2474 10.6274 14.1627 10.5573C14.0779 10.4871 13.9796 10.4352 13.8739 10.4047C13.7682 10.3743 13.6574 10.366 13.5483 10.3803C13.4392 10.3946 13.3343 10.4313 13.24 10.488L11.2 11.504V10.096L13.96 8.712C14.1331 8.60786 14.2604 8.44209 14.3163 8.24799C14.3722 8.05389 14.3526 7.84581 14.2615 7.66555C14.1703 7.48529 14.0144 7.34617 13.8249 7.27614C13.6354 7.20611 13.4265 7.21035 13.24 7.288L11.2 8.304V4.8C11.2 4.58783 11.1157 4.38434 10.9657 4.23431C10.8157 4.08429 10.6122 4 10.4 4C10.1878 4 9.98435 4.08429 9.83432 4.23431C9.68429 4.38434 9.60001 4.58783 9.60001 4.8V9.104L6.84001 10.488C6.65159 10.5839 6.50879 10.7505 6.44284 10.9514C6.37688 11.1522 6.39312 11.3711 6.48801 11.56C6.55449 11.6919 6.6562 11.8029 6.78187 11.8805C6.90755 11.9582 7.05227 11.9996 7.20001 12C7.32551 12.0015 7.44935 11.9712 7.56001 11.912L9.60001 10.896V12.304L6.84001 13.688C6.65159 13.7839 6.50879 13.9505 6.44284 14.1514C6.37688 14.3522 6.39312 14.5711 6.48801 14.76C6.55449 14.8919 6.6562 15.0029 6.78187 15.0805C6.90755 15.1582 7.05227 15.1996 7.20001 15.2C7.32551 15.2015 7.44935 15.1712 7.56001 15.112L9.60001 14.096V19.2C9.60001 19.4122 9.68429 19.6157 9.83432 19.7657C9.98435 19.9157 10.1878 20 10.4 20C12.3096 20 14.1409 19.2414 15.4912 17.8912C16.8414 16.5409 17.6 14.7096 17.6 12.8C17.6 12.5878 17.5157 12.3843 17.3657 12.2343C17.2157 12.0843 17.0122 12 16.8 12Z" fill="white" />
    <path d="M8 12H12" stroke="white" stroke-width="1.5" stroke-miterlimit="10" stroke-linecap="round" stroke-linejoin="round"/>    

  </svg>